<?xml version="1.0" encoding="UTF-8" standalone="no"?>
<!-- Created with Inkscape (http://www.inkscape.org/) -->

<svg
   xmlns:dc="http://purl.org/dc/elements/1.1/"
   xmlns:cc="http://creativecommons.org/ns#"
   xmlns:rdf="http://www.w3.org/1999/02/22-rdf-syntax-ns#"
   xmlns:svg="http://www.w3.org/2000/svg"
   xmlns="http://www.w3.org/2000/svg"
   xmlns:sodipodi="http://sodipodi.sourceforge.net/DTD/sodipodi-0.dtd"
   xmlns:inkscape="http://www.inkscape.org/namespaces/inkscape"
   width="210mm"
   height="297mm"
   viewBox="0 0 210 297"
   version="1.1"
   id="svg8"
   inkscape:version="0.92.4 (5da689c313, 2019-01-14)"
   sodipodi:docname="LibraryLogo.svg">
  <defs
     id="defs2" />
  <sodipodi:namedview
     id="base"
     pagecolor="#ffffff"
     bordercolor="#666666"
     borderopacity="1.0"
     inkscape:pageopacity="0.0"
     inkscape:pageshadow="2"
     inkscape:zoom="0.7"
     inkscape:cx="-257.54336"
     inkscape:cy="735.86928"
     inkscape:document-units="mm"
     inkscape:current-layer="layer1"
     showgrid="false"
     showguides="true"
     inkscape:guide-bbox="true"
     inkscape:snap-global="true"
     inkscape:window-width="1859"
     inkscape:window-height="981"
     inkscape:window-x="51"
     inkscape:window-y="0"
     inkscape:window-maximized="0" />
  <metadata
     id="metadata5">
    <rdf:RDF>
      <cc:Work
         rdf:about="">
        <dc:format>image/svg+xml</dc:format>
        <dc:type
           rdf:resource="http://purl.org/dc/dcmitype/StillImage" />
        <dc:title></dc:title>
      </cc:Work>
    </rdf:RDF>
  </metadata>
  <g
     inkscape:label="Layer 1"
     inkscape:groupmode="layer"
     id="layer1">
    <g
       id="g865"
       style="stroke:#00ff00" />
    <g
       style="stroke:#00ff00"
       id="g880" />
    <path
       id="path886"
       style="fill:none;stroke:#008000;stroke-width:5.29166651;stroke-linecap:round;stroke-linejoin:miter;stroke-miterlimit:4;stroke-dasharray:none;stroke-opacity:1;paint-order:stroke fill markers"
       d="M 96.952024,121.48252 C 80.913927,105.17545 54.454532,106.58098 54.454532,106.58098 m 42.497492,14.90154 C 112.99013,105.17544 139.44951,106.58097 139.44951,106.58097 M 96.952023,98.10251 C 80.913925,81.79544 54.45453,83.20097 54.45453,83.20097 M 96.952023,98.10251 C 112.99013,81.79543 139.44951,83.20097 139.44951,83.20097 m -42.453155,61.23922 c -23.147854,-20.97756 -47.21989,-16.31332 -63.567859,-24.52573 1.269908,36.63486 21.229151,42.39936 55.708565,43.05629 -2.814628,-14.17042 -5.450558,-17.44052 -31.668357,-26.16079 m 39.527651,7.63023 c 23.147855,-20.97756 47.219895,-16.31332 63.567865,-24.52573 -1.26991,36.63486 -21.22915,42.39936 -55.70857,43.05629 2.81463,-14.17042 5.45056,-17.44052 31.66836,-26.16079 M 96.952023,79.09019 V 145.8902 M 30.590557,110.28161 30.917461,64.95942 c 21.516974,0 59.005215,4.31576 66.034562,14.13077 6.704847,-9.09406 48.000757,-14.13077 64.073137,-14.13077 l 0.42905,44.37725"
       inkscape:connector-curvature="0"
       inkscape:export-xdpi="96"
       inkscape:export-ydpi="96"
       sodipodi:nodetypes="ccccccccccccccccccccccc" />
  </g>
</svg>
